<svg version="1.1" viewBox="0.0 0.0 1110.0 404.0" fill="none" stroke="none" stroke-linecap="square" stroke-miterlimit="10" xmlns:xlink="http://www.w3.org/1999/xlink" xmlns="http://www.w3.org/2000/svg"><clipPath id="p.0"><path d="m0 0l1110.0 0l0 404.0l-1110.0 0l0 -404.0z" clip-rule="nonzero"/></clipPath><g clip-path="url(#p.0)"><path fill="#000000" fill-opacity="0.0" d="m0 0l1110.0 0l0 404.0l-1110.0 0z" fill-rule="evenodd"/><path fill="#000000" d="m183.63898 106.5811l0 163.74547l0 0c0 21.45111 -18.41484 38.840668 -41.130707 38.840668c-22.715866 0 -41.130707 -17.389557 -41.130707 -38.840668l0 -163.74547l0 0c0 -21.451096 18.41484 -38.840645 41.130707 -38.840645c22.715866 0 41.130707 17.38955 41.130707 38.840645z" fill-rule="evenodd"/><path stroke="#000000" stroke-width="1.0" stroke-linejoin="round" stroke-linecap="butt" d="m183.63898 106.5811l0 163.74547l0 0c0 21.45111 -18.41484 38.840668 -41.130707 38.840668c-22.715866 0 -41.130707 -17.389557 -41.130707 -38.840668l0 -163.74547l0 0c0 -21.451096 18.41484 -38.840645 41.130707 -38.840645c22.715866 0 41.130707 17.38955 41.130707 38.840645z" fill-rule="evenodd"/><path fill="#000000" d="m64.37424 41.34916l155.63991 0l0 0c20.389252 0 36.917984 19.374294 36.917984 43.273697c0 23.899406 -16.528732 43.273705 -36.917984 43.273705l-155.63991 0l0 0c-20.389248 0 -36.918 -19.374298 -36.918 -43.273705c0 -23.899403 16.528751 -43.273697 36.918 -43.273697z" fill-rule="evenodd"/><path stroke="#000000" stroke-width="1.0" stroke-linejoin="round" stroke-linecap="butt" d="m64.37424 41.34916l155.63991 0l0 0c20.389252 0 36.917984 19.374294 36.917984 43.273697c0 23.899406 -16.528732 43.273705 -36.917984 43.273705l-155.63991 0l0 0c-20.389248 0 -36.918 -19.374298 -36.918 -43.273705c0 -23.899403 16.528751 -43.273697 36.918 -43.273697z" fill-rule="evenodd"/><path fill="#000000" fill-opacity="0.0" d="m46.170456 10.801301l309.57483 0l0 321.13385l-309.57483 0z" fill-rule="evenodd"/><path fill="#ffffff" d="m143.43608 275.8013q-5.875 0 -9.875 -4.0q-4.0 -4.0 -4.0 -9.859375l0 -194.40625l27.734375 0l0 194.40625q0 5.859375 -4.0 9.859375q-4.0 4.0 -9.859375 4.0zm-71.46875 -182.65625q-5.59375 0 -9.203125 -3.59375q-3.59375 -3.609375 -3.59375 -9.203125q0 -5.609375 3.59375 -9.203125q3.609375 -3.609375 9.203125 -3.609375l142.65625 0q5.609375 0 9.203125 3.609375q3.609375 3.59375 3.609375 9.203125q0 5.59375 -3.609375 9.203125q-3.59375 3.59375 -9.203125 3.59375l-142.65625 0z" fill-rule="nonzero"/><path fill="#76a5af" d="m114.61195 331.94138l55.7892 0l0 0c7.3085327 0 13.233276 5.9089966 13.233276 13.19809c0 7.2891235 -5.9247437 13.19812 -13.233276 13.19812l-55.7892 0l0 0c-7.3085403 0 -13.233276 -5.9089966 -13.233276 -13.19812c0 -7.289093 5.924736 -13.19809 13.233276 -13.19809z" fill-rule="evenodd"/><path fill="#000000" fill-opacity="0.0" d="m213.11548 41.700787l1042.0787 0l0 342.5827l-1042.0787 0z" fill-rule="evenodd"/><path fill="#000000" d="m312.24048 307.76328q-21.59375 0 -38.125 -9.453125q-16.53125 -9.46875 -26.0 -26.140625q-9.46875 -16.67186 -9.46875 -38.26561q0 -21.859375 9.46875 -38.53125q9.46875 -16.671875 26.0 -26.125q16.53125 -9.46875 38.125 -9.46875q21.34375 0 37.875 9.46875q16.53125 9.453125 25.984375 26.125q9.46875 16.671875 9.46875 38.53125q0 21.59375 -9.328125 38.26561q-9.328125 16.671875 -25.859375 26.140625q-16.53125 9.453125 -38.140625 9.453125zm0 -24.0q13.875 0 24.53125 -6.390625q10.671875 -6.40625 16.671875 -17.59375q6.0 -11.20311 6.0 -25.874985q0 -14.671875 -6.0 -26.0q-6.0 -11.328125 -16.671875 -17.71875q-10.65625 -6.40625 -24.53125 -6.40625q-13.859375 0 -24.53125 6.40625q-10.65625 6.390625 -16.796875 17.71875q-6.125 11.328125 -6.125 26.0q0 14.671875 6.125 25.874985q6.140625 11.1875 16.796875 17.59375q10.671875 6.390625 24.53125 6.390625zm127.46167 85.328125q-5.859375 0 -9.734375 -3.859375q-3.859375 -3.859375 -3.859375 -9.734375l0 -121.593735q0.265625 -21.0625 9.859375 -37.859375q9.609375 -16.8125 26.140625 -26.53125q16.53125 -9.734375 37.328125 -9.734375q21.0625 0 37.59375 9.734375q16.53125 9.71875 26.265625 26.53125q9.734375 16.796875 9.734375 37.859375q0 21.0625 -8.9375 37.73436q-8.921875 16.65625 -24.390625 26.390625q-15.46875 9.734375 -34.9375 9.734375q-15.71875 0 -28.921875 -6.53125q-13.203125 -6.53125 -22.53125 -17.734375l0 72.0q0 5.875 -3.734375 9.734375q-3.734375 3.859375 -9.875 3.859375zm59.734375 -85.328125q13.59375 0 24.265625 -6.53125q10.671875 -6.53125 16.9375 -17.859375q6.265625 -11.343735 6.265625 -25.468735q0 -14.40625 -6.265625 -25.734375q-6.265625 -11.328125 -16.9375 -17.859375q-10.671875 -6.53125 -24.265625 -6.53125q-13.328125 0 -24.140625 6.53125q-10.796875 6.53125 -16.9375 17.859375q-6.125 11.328125 -6.125 25.734375q0 14.125 6.125 25.468735q6.140625 11.328125 16.9375 17.859375q10.8125 6.53125 24.140625 6.53125zm182.92804 25.609375q-17.0625 0 -32.53125 -5.328125q-15.46875 -5.34375 -26.9375 -14.9375q-11.46875 -9.609375 -16.796875 -22.140625q-2.671875 -5.59375 0.125 -10.390625q2.8125 -4.8124847 9.46875 -6.1406097q4.8125 -1.0625 9.46875 1.46875q4.671875 2.53125 7.078125 7.5937347q3.1875 6.671875 10.515625 12.28125q7.34375 5.59375 17.734375 9.0625q10.40625 3.453125 21.875 3.453125q12.796875 0 23.59375 -4.0q10.796875 -4.0 17.46875 -11.59375q6.671814 -7.59375 6.671814 -18.79686q0 -14.140625 -11.078064 -25.328125q-11.0625 -11.203125 -36.390625 -13.875q-33.0625 -3.203125 -52.0 -19.46875q-18.9375 -16.265625 -18.9375 -40.265625q0 -17.59375 9.859375 -29.859375q9.875 -12.265625 26.8125 -18.65625q16.9375 -6.40625 37.734375 -6.40625q16.265625 0 28.390625 4.53125q12.140564 4.53125 21.203064 12.53125q9.0625 8.0 15.734375 18.9375q3.734375 5.859375 3.0625 11.0625q-0.65625 5.203125 -5.1875 8.140625q-5.078125 3.1875 -10.953125 1.328125q-5.859375 -1.875 -8.78125 -6.9375q-4.265625 -7.734375 -10.406189 -13.0625q-6.125 -5.328125 -14.40625 -8.390625q-8.265625 -3.078125 -19.453125 -3.078125q-19.734375 -0.265625 -33.078125 7.34375q-13.328125 7.59375 -13.328125 23.328125q0 8.0 4.125 15.328125q4.140625 7.328125 15.203125 12.671875q11.078125 5.328125 31.875 7.453125q31.734375 3.203125 49.46869 19.34375q17.734375 16.125 17.734375 42.53125q0 15.20311 -6.28125 26.406235q-6.265625 11.1875 -16.796875 18.796875q-10.531189 7.59375 -23.999939 11.328125q-13.453125 3.734375 -27.859375 3.734375zm183.19379 -1.609375q-22.140625 0 -39.34375 -9.453125q-17.1875 -9.46875 -26.921875 -26.140625q-9.734375 -16.67186 -9.734375 -38.26561q0 -21.859375 9.203125 -38.53125q9.203125 -16.671875 25.46875 -26.125q16.265625 -9.46875 37.328125 -9.46875q20.796875 0 35.71875 9.203125q14.9375 9.1875 22.796875 25.328125q7.875 16.125 7.875 37.1875q0 5.078125 -3.46875 8.40625q-3.453125 3.328125 -8.796875 3.328125l-107.453125 0l0 -21.328125l106.65625 0l-10.9375 7.46875q-0.265625 -13.328125 -5.328125 -23.859375q-5.0625 -10.546875 -14.40625 -16.671875q-9.328125 -6.140625 -22.65625 -6.140625q-15.203125 0 -26.0 6.671875q-10.796875 6.671875 -16.40625 18.265625q-5.59375 11.59375 -5.59375 26.265625q0 14.671875 6.65625 26.14061q6.671875 11.453125 18.40625 18.125q11.734375 6.671875 26.9375 6.671875q8.265625 0 16.921875 -3.0625q8.671875 -3.078125 14.015625 -7.078125q4.0 -2.9375 8.65625 -3.0625q4.671875 -0.140625 8.140625 2.796875q4.53125 4.0 4.796875 8.796875q0.265625 4.796875 -4.265625 8.265625q-9.0625 7.203125 -22.53125 11.734375q-13.46875 4.53125 -25.734375 4.53125zm150.12476 -1.0625q-13.328125 0 -24.0 -6.796875q-10.671875 -6.796875 -16.8125 -18.53125q-6.125 -11.734375 -6.125 -26.406235l0 -127.1875q0 -5.875 3.734375 -9.609375q3.734375 -3.734375 9.609375 -3.734375q5.859375 0 9.59375 3.734375q3.734375 3.734375 3.734375 9.609375l0 127.1875q0 10.67186 5.859375 17.874985q5.875 7.1875 14.40625 7.1875l9.0625 0q4.8125 0 8.140625 3.734375q3.328125 3.734375 3.328125 9.609375q0 5.859375 -4.40625 9.59375q-4.390625 3.734375 -11.328125 3.734375l-4.796875 0zm-59.203125 -117.593735q-5.59375 0 -9.0625 -3.203125q-3.46875 -3.203125 -3.46875 -8.0q0 -5.328125 3.46875 -8.53125q3.46875 -3.203125 9.0625 -3.203125l61.609375 0q5.59375 0 9.0625 3.203125q3.46875 3.203125 3.46875 8.53125q0 4.796875 -3.46875 8.0q-3.46875 3.203125 -9.0625 3.203125l-61.609375 0z" fill-rule="nonzero"/></g></svg>