<svg version="1.1" viewBox="0.0 0.0 384.0 384.0" fill="none" stroke="none" stroke-linecap="square" stroke-miterlimit="10" xmlns:xlink="http://www.w3.org/1999/xlink" xmlns="http://www.w3.org/2000/svg"><clipPath id="p.0"><path d="m0 0l384.0 0l0 384.0l-384.0 0l0 -384.0z" clip-rule="nonzero"/></clipPath><g clip-path="url(#p.0)"><path fill="#000000" fill-opacity="0.0" d="m0 0l384.0 0l0 384.0l-384.0 0z" fill-rule="evenodd"/><path fill="#ffffff" d="m-2.96063 -3.070866l389.92126 0l0 390.14172l-389.92126 0z" fill-rule="evenodd"/><path fill="#000000" d="m231.63898 101.328026l0 163.74545l0 0c0 21.45111 -18.41484 38.840668 -41.130707 38.840668c-22.715866 0 -41.130707 -17.389557 -41.130707 -38.840668l0 -163.74545l0 0c0 -21.451103 18.41484 -38.840652 41.130707 -38.840652c22.715866 0 41.130707 17.38955 41.130707 38.840652z" fill-rule="evenodd"/><path stroke="#000000" stroke-width="1.0" stroke-linejoin="round" stroke-linecap="butt" d="m231.63898 101.328026l0 163.74545l0 0c0 21.45111 -18.41484 38.840668 -41.130707 38.840668c-22.715866 0 -41.130707 -17.389557 -41.130707 -38.840668l0 -163.74545l0 0c0 -21.451103 18.41484 -38.840652 41.130707 -38.840652c22.715866 0 41.130707 17.38955 41.130707 38.840652z" fill-rule="evenodd"/><path fill="#000000" d="m112.37424 36.09608l155.6399 0l0 0c20.389252 0 36.918 19.374294 36.918 43.2737c0 23.899406 -16.528748 43.273697 -36.918 43.273697l-155.6399 0l0 0c-20.389252 0 -36.918 -19.37429 -36.918 -43.273697c0 -23.899406 16.528748 -43.2737 36.918 -43.2737z" fill-rule="evenodd"/><path stroke="#000000" stroke-width="1.0" stroke-linejoin="round" stroke-linecap="butt" d="m112.37424 36.09608l155.6399 0l0 0c20.389252 0 36.918 19.374294 36.918 43.2737c0 23.899406 -16.528748 43.273697 -36.918 43.273697l-155.6399 0l0 0c-20.389252 0 -36.918 -19.37429 -36.918 -43.273697c0 -23.899406 16.528748 -43.2737 36.918 -43.2737z" fill-rule="evenodd"/><path fill="#000000" fill-opacity="0.0" d="m94.170456 5.548223l309.57483 0l0 321.13385l-309.57483 0z" fill-rule="evenodd"/><path fill="#ffffff" d="m191.43608 270.54822q-5.875 0 -9.875 -4.0q-4.0 -4.0 -4.0 -9.859375l0 -194.40625l27.734375 0l0 194.40625q0 5.859375 -4.0 9.859375q-4.0 4.0 -9.859375 4.0zm-71.46875 -182.65625q-5.59375 0 -9.203125 -3.59375q-3.59375 -3.609375 -3.59375 -9.203125q0 -5.609375 3.59375 -9.203125q3.609375 -3.6093788 9.203125 -3.6093788l142.65627 0q5.609375 0 9.203125 3.6093788q3.609375 3.59375 3.609375 9.203125q0 5.59375 -3.609375 9.203125q-3.59375 3.59375 -9.203125 3.59375l-142.65627 0z" fill-rule="nonzero"/><path fill="#76a5af" d="m162.61195 326.6883l55.7892 0l0 0c7.3085327 0 13.233276 5.9089966 13.233276 13.19809c0 7.2891235 -5.9247437 13.19812 -13.233276 13.19812l-55.7892 0l0 0c-7.3085327 0 -13.233276 -5.9089966 -13.233276 -13.19812c0 -7.289093 5.9247437 -13.19809 13.233276 -13.19809z" fill-rule="evenodd"/></g></svg>